<svg width="256" height="52" viewBox="0 0 256 52" fill="none" xmlns="http://www.w3.org/2000/svg">
<path d="M85.073 51.5888H78.7351L64.3843 29.8949V51.5888H58.0464V19.9311H64.3843L78.7351 41.6703V19.9311H85.073V51.5888Z" fill="white"/>
<path d="M102.473 51.9964C100.058 51.9964 97.8855 51.468 95.9539 50.4112C94.0224 49.3243 92.4983 47.7995 91.3816 45.8369C90.2951 43.8744 89.7518 41.6099 89.7518 39.0435C89.7518 36.477 90.3102 34.2125 91.4269 32.25C92.5737 30.2874 94.128 28.7777 96.0898 27.721C98.0515 26.634 100.24 26.0905 102.654 26.0905C105.068 26.0905 107.257 26.634 109.218 27.721C111.18 28.7777 112.719 30.2874 113.836 32.25C114.983 34.2125 115.556 36.477 115.556 39.0435C115.556 41.6099 114.968 43.8744 113.791 45.8369C112.644 47.7995 111.074 49.3243 109.082 50.4112C107.121 51.468 104.918 51.9964 102.473 51.9964ZM102.473 46.471C103.62 46.471 104.691 46.1993 105.687 45.6558C106.713 45.0821 107.528 44.2367 108.132 43.1196C108.735 42.0024 109.037 40.6437 109.037 39.0435C109.037 36.6582 108.403 34.8315 107.136 33.5634C105.898 32.2651 104.374 31.6159 102.563 31.6159C100.753 31.6159 99.2285 32.2651 97.9911 33.5634C96.7839 34.8315 96.1803 36.6582 96.1803 39.0435C96.1803 41.4287 96.7688 43.2705 97.9459 44.5688C99.1531 45.8369 100.662 46.471 102.473 46.471Z" fill="white"/>
<path d="M130.663 45.7464L137.001 26.4981H143.746L134.466 51.5888H126.77L117.534 26.4981H124.325L130.663 45.7464Z" fill="white"/>
<path d="M145.676 38.9529C145.676 36.4166 146.174 34.1672 147.17 32.2047C148.196 30.2421 149.569 28.7324 151.29 27.6757C153.04 26.6189 154.987 26.0905 157.13 26.0905C159.001 26.0905 160.631 26.468 162.019 27.2228C163.437 27.9776 164.569 28.9287 165.414 30.076V26.4981H171.797V51.5888H165.414V47.9203C164.599 49.0978 163.468 50.0791 162.019 50.8641C160.6 51.619 158.956 51.9964 157.084 51.9964C154.972 51.9964 153.04 51.4529 151.29 50.3659C149.569 49.279 148.196 47.7542 147.17 45.7917C146.174 43.7989 145.676 41.5193 145.676 38.9529ZM165.414 39.0435C165.414 37.5036 165.112 36.1902 164.509 35.1032C163.905 33.9861 163.09 33.1407 162.064 32.567C161.038 31.9631 159.936 31.6612 158.759 31.6612C157.582 31.6612 156.496 31.948 155.5 32.5217C154.504 33.0954 153.689 33.9408 153.055 35.0579C152.452 36.1449 152.15 37.4432 152.15 38.9529C152.15 40.4625 152.452 41.791 153.055 42.9384C153.689 44.0555 154.504 44.9161 155.5 45.5199C156.526 46.1238 157.613 46.4257 158.759 46.4257C159.936 46.4257 161.038 46.1389 162.064 45.5652C163.09 44.9613 163.905 44.1159 164.509 43.029C165.112 41.9118 165.414 40.5833 165.414 39.0435Z" fill="white"/>
<path d="M196.911 51.5888L190.075 40.9456L183.873 51.5888H176.72L186.679 35.6467L176.584 19.9764H183.873L190.708 30.5742L196.865 19.9764H204.018L194.104 35.8732L204.199 51.5888H196.911Z" fill="white"/>
<path d="M232.337 38.5C232.337 39.4058 232.277 40.221 232.156 40.9456H213.821C213.972 42.7572 214.606 44.1763 215.723 45.2029C216.839 46.2295 218.213 46.7427 219.842 46.7427C222.196 46.7427 223.871 45.7313 224.867 43.7083H231.703C230.979 46.1238 229.591 48.1165 227.538 49.6866C225.486 51.2264 222.966 51.9964 219.978 51.9964C217.564 51.9964 215.391 51.468 213.459 50.4112C211.558 49.3243 210.064 47.7995 208.977 45.8369C207.921 43.8744 207.393 41.6099 207.393 39.0435C207.393 36.4468 207.921 34.1672 208.977 32.2047C210.034 30.2421 211.513 28.7324 213.414 27.6757C215.315 26.6189 217.503 26.0905 219.978 26.0905C222.362 26.0905 224.49 26.6038 226.361 27.6304C228.263 28.657 229.726 30.1213 230.753 32.0235C231.809 33.8955 232.337 36.0543 232.337 38.5ZM225.773 36.6884C225.743 35.0579 225.154 33.7596 224.007 32.7934C222.86 31.7971 221.457 31.2989 219.797 31.2989C218.228 31.2989 216.9 31.782 215.813 32.7482C214.757 33.6841 214.108 34.9976 213.867 36.6884H225.773Z" fill="white"/>
<path d="M243.301 18.0742V51.5888H236.963V18.0742H243.301Z" fill="white"/>
<path d="M255.901 18.0742V51.5888H249.563V18.0742H255.901Z" fill="white"/>
<path d="M18.3966 51.9823H13.3873L5.00926 39.298V51.9823H0V31.418H5.00926L13.3873 44.1608V31.418H18.3966V51.9823Z" fill="#1B1B1B"/>
<path fill-rule="evenodd" clip-rule="evenodd" d="M0.000244141 14.647L23.4354 0L46.8705 14.647V51.9966H0.000244141L23.4349 51.9964V46.949H41.8171V17.4901L23.4352 5.9375L5.05327 17.4901V26.3643H0.000244141V14.647Z" fill="white"/>
</svg>
