<svg width="13" height="14" viewBox="0 0 13 14" fill="none" xmlns="http://www.w3.org/2000/svg">
<path d="M4.875 5.40625C4.875 4.97461 4.49414 4.59375 4.0625 4.59375H3.65625C2.74219 4.59375 2.03125 5.33008 2.03125 6.21875V7.4375C2.03125 8.35156 2.74219 9.0625 3.65625 9.0625H4.0625C4.49414 9.0625 4.875 8.70703 4.875 8.25V5.40625ZM9.34375 9.0625C10.2324 9.0625 10.9688 8.35156 10.9688 7.4375V6.21875C10.9688 5.33008 10.2324 4.59375 9.34375 4.59375H8.9375C8.48047 4.59375 8.125 4.97461 8.125 5.40625V8.25C8.125 8.70703 8.48047 9.0625 8.9375 9.0625H9.34375ZM6.5 0.125C2.86914 0.125 0.101562 3.14648 0 6.625V7.03125C0 7.25977 0.177734 7.4375 0.40625 7.4375H0.8125C1.01562 7.4375 1.21875 7.25977 1.21875 7.03125V6.625C1.21875 3.73047 3.58008 1.34375 6.5 1.34375C9.39453 1.34375 11.7812 3.73047 11.7812 6.625H11.7559C11.7559 6.70117 11.7812 10.8398 11.7812 10.8398C11.7812 11.4492 11.2988 11.9062 10.6895 11.9062H8.125C8.125 11.2461 7.56641 10.6875 6.90625 10.6875H6.09375C5.4082 10.6875 4.875 11.2461 4.875 11.9062C4.875 12.5918 5.4082 13.125 6.09375 13.125H10.6895C11.959 13.125 13 12.1094 13 10.8398V6.625C12.873 3.14648 10.1055 0.125 6.5 0.125Z" fill="white"/>
</svg>
