<svg width="14" height="10" viewBox="0 0 14 10" fill="none" xmlns="http://www.w3.org/2000/svg">
<path d="M7.9375 1.84375L10 3.875H0.75C0.3125 3.875 0 4.21875 0 4.625V5.375C0 5.8125 0.3125 6.125 0.75 6.125H10L7.9375 8.1875C7.65625 8.46875 7.65625 8.96875 7.9375 9.25L8.46875 9.78125C8.75 10.0625 9.25 10.0625 9.53125 9.78125L13.75 5.53125C14.0625 5.25 14.0625 4.78125 13.75 4.5L9.53125 0.25C9.25 -0.03125 8.75 -0.03125 8.46875 0.25L7.9375 0.78125C7.65625 1.0625 7.65625 1.5625 7.9375 1.84375Z" fill="white"/>
</svg>
