<svg width="18" height="19" viewBox="0 0 18 19" fill="none" xmlns="http://www.w3.org/2000/svg">
<path d="M17.0156 11.8516L13.4297 10.3398C13.2539 10.2695 12.9727 10.1992 12.7969 10.1992C12.375 10.1992 11.8125 10.4805 11.5664 10.7969L10.4062 12.2031C8.85938 11.3594 6.89062 9.39062 6.04688 7.84375L7.45312 6.68359C7.76953 6.4375 8.05078 5.875 8.05078 5.45312C8.05078 5.27734 7.98047 4.99609 7.91016 4.82031L6.39844 1.23438C6.15234 0.707031 5.48438 0.25 4.92188 0.25C4.81641 0.25 4.64062 0.285156 4.53516 0.320312L1.23047 1.05859C0.527344 1.23438 0 1.9375 0 2.64062C0 11.2891 6.99609 18.2852 15.6094 18.25C16.3125 18.25 17.0156 17.7227 17.1914 17.0195L17.9297 13.7148C17.9648 13.6094 18 13.4336 18 13.3633C18 12.7656 17.543 12.0977 17.0156 11.8516ZM15.5391 16.5977C7.91016 16.5625 1.72266 10.3398 1.6875 2.71094L4.85156 1.97266L6.32812 5.41797L3.9375 7.38672C5.58984 10.8672 7.38281 12.6602 10.8633 14.3125L12.832 11.9219L16.2773 13.3984L15.5391 16.5977Z" fill="white"/>
</svg>
