<svg width="21" height="16" viewBox="0 0 21 16" fill="none" xmlns="http://www.w3.org/2000/svg">
<path d="M20.8438 5.25L18.375 1C18.0938 0.53125 17.4688 0.375 17 0.65625L14.8438 1.875L16.7188 5.03125C16.7812 5.15625 16.75 5.3125 16.625 5.375L16.1875 5.625C16.0625 5.6875 15.9062 5.65625 15.8438 5.53125L14 2.34375L12.25 3.34375L13.125 4.8125C13.1875 4.9375 13.1562 5.09375 13.0312 5.15625L12.625 5.40625C12.5 5.46875 12.3438 5.4375 12.2812 5.3125L11.4062 3.8125L9.6875 4.8125L11.5312 7.96875C11.625 8.09375 11.5625 8.25 11.4375 8.3125L11.0312 8.5625C10.9062 8.625 10.75 8.59375 10.6875 8.46875L8.8125 5.28125L7.09375 6.28125L7.96875 7.75C8.03125 7.875 8 8.03125 7.875 8.09375L7.4375 8.34375C7.3125 8.40625 7.15625 8.34375 7.09375 8.25L6.21875 6.75L4.5 7.71875L6.375 10.9062C6.4375 11.0312 6.40625 11.1875 6.28125 11.25L5.84375 11.5C5.71875 11.5625 5.5625 11.5312 5.5 11.4062L3.625 8.21875L1.46875 9.4375C1 9.71875 0.84375 10.3125 1.125 10.7812L3.59375 15.0312C3.875 15.5 4.5 15.6562 4.96875 15.375L20.5 6.5625C20.9688 6.3125 21.125 5.71875 20.8438 5.25Z" fill="#1B1B1B"/>
</svg>
