<?xml version="1.0" encoding="utf-8"?>
<!-- Generator: Adobe Illustrator 23.0.1, SVG Export Plug-In . SVG Version: 6.00 Build 0)  -->
<svg version="1.1" id="Layer_1" xmlns="http://www.w3.org/2000/svg" xmlns:xlink="http://www.w3.org/1999/xlink" x="0px" y="0px"
	 viewBox="0 0 21 16" style="enable-background:new 0 0 21 16;" xml:space="preserve">
<style type="text/css">
	.st0{fill:#FFFFFF;}
</style>
<path class="st0" d="M20.8,5.2L18.4,1c-0.3-0.5-0.9-0.6-1.4-0.3l-2.2,1.2L16.7,5c0.1,0.1,0,0.3-0.1,0.3l-0.4,0.2
	c-0.1,0.1-0.3,0-0.3-0.1L14,2.3l-1.8,1l0.9,1.5c0.1,0.1,0,0.3-0.1,0.3l-0.4,0.2c-0.1,0.1-0.3,0-0.3-0.1l-0.9-1.5l-1.7,1L11.5,8
	c0.1,0.1,0,0.3-0.1,0.3L11,8.6c-0.1,0.1-0.3,0-0.3-0.1L8.8,5.3l-1.7,1L8,7.8C8,7.9,8,8,7.9,8.1L7.4,8.3c-0.1,0.1-0.3,0-0.3-0.1
	L6.2,6.8l-1.7,1l1.9,3.2c0.1,0.1,0,0.3-0.1,0.3l-0.4,0.2c-0.1,0.1-0.3,0-0.3-0.1L3.6,8.2L1.5,9.4C1,9.7,0.8,10.3,1.1,10.8L3.6,15
	c0.3,0.5,0.9,0.6,1.4,0.3l15.5-8.8C21,6.3,21.1,5.7,20.8,5.2z"/>
</svg>
