<svg width="18" height="14" fill="none" xmlns="http://www.w3.org/2000/svg"><path d="M16.313.5H1.688C.738.5 0 1.273 0 2.188v10.124C0 13.262.738 14 1.688 14h14.624c.915 0 1.688-.738 1.688-1.688V2.188A1.71 1.71 0 0016.312.5zm0 1.688v1.44c-.81.669-2.075 1.653-4.747 3.763C10.97 7.848 9.81 8.973 9 8.937c-.844.036-2.004-1.09-2.602-1.546-2.671-2.11-3.937-3.094-4.71-3.762V2.187h14.624zM1.688 12.312V5.81c.773.632 1.933 1.546 3.656 2.918.773.597 2.144 1.933 3.656 1.898 1.477.035 2.813-1.3 3.621-1.898a578.417 578.417 0 013.691-2.918v6.503H1.688z" fill="#fff"/></svg>