<svg width="256" height="52" fill="none" xmlns="http://www.w3.org/2000/svg"><path d="M85.073 51.589h-6.338l-14.35-21.694v21.694h-6.339V19.93h6.338l14.351 21.74V19.93h6.338v31.66zm17.4.407c-2.415 0-4.588-.528-6.52-1.585-1.93-1.087-3.455-2.611-4.571-4.574-1.087-1.963-1.63-4.227-1.63-6.794 0-2.566.558-4.83 1.675-6.793 1.147-1.963 2.701-3.472 4.663-4.529 1.962-1.087 4.15-1.63 6.564-1.63 2.414 0 4.603.543 6.564 1.63 1.962 1.057 3.501 2.566 4.618 4.529 1.147 1.962 1.72 4.227 1.72 6.794 0 2.566-.588 4.83-1.765 6.793a12.034 12.034 0 01-4.709 4.574c-1.961 1.057-4.164 1.585-6.609 1.585zm0-5.525a6.604 6.604 0 003.214-.815c1.026-.574 1.841-1.42 2.445-2.536.603-1.118.905-2.476.905-4.076 0-2.386-.634-4.212-1.901-5.48-1.238-1.299-2.762-1.948-4.573-1.948-1.81 0-3.335.65-4.572 1.947-1.207 1.268-1.81 3.095-1.81 5.48 0 2.386.588 4.227 1.765 5.526 1.207 1.268 2.716 1.902 4.527 1.902zm28.19-.725l6.338-19.248h6.745l-9.28 25.09h-7.696l-9.236-25.09h6.791l6.338 19.248zm15.013-6.793c0-2.536.498-4.786 1.494-6.748 1.026-1.963 2.399-3.473 4.12-4.53 1.75-1.056 3.697-1.585 5.84-1.585 1.871 0 3.501.378 4.889 1.133 1.418.755 2.55 1.706 3.395 2.853v-3.578h6.383v25.09h-6.383V47.92c-.815 1.178-1.946 2.16-3.395 2.944-1.419.755-3.063 1.132-4.935 1.132-2.112 0-4.044-.543-5.794-1.63-1.721-1.087-3.094-2.612-4.12-4.574-.996-1.993-1.494-4.273-1.494-6.84zm19.738.09c0-1.54-.302-2.853-.905-3.94-.604-1.117-1.419-1.962-2.445-2.536a6.407 6.407 0 00-3.305-.906 6.415 6.415 0 00-3.259.86c-.996.574-1.811 1.42-2.445 2.537-.603 1.087-.905 2.385-.905 3.895 0 1.51.302 2.838.905 3.985.634 1.117 1.449 1.978 2.445 2.582a6.326 6.326 0 003.259.906 6.665 6.665 0 003.305-.86c1.026-.605 1.841-1.45 2.445-2.537.603-1.117.905-2.446.905-3.986zm31.497 12.546l-6.836-10.643-6.202 10.643h-7.153l9.959-15.942-10.095-15.67h7.289l6.835 10.597 6.157-10.598h7.153l-9.914 15.897 10.095 15.716h-7.288zM232.337 38.5c0 .906-.06 1.721-.181 2.446h-18.335c.151 1.811.785 3.23 1.902 4.257 1.116 1.026 2.49 1.54 4.119 1.54 2.354 0 4.029-1.012 5.025-3.035h6.836c-.724 2.416-2.112 4.409-4.165 5.979-2.052 1.54-4.572 2.31-7.56 2.31-2.414 0-4.587-.529-6.519-1.586-1.901-1.087-3.395-2.611-4.482-4.574-1.056-1.963-1.584-4.227-1.584-6.794 0-2.596.528-4.876 1.584-6.838 1.057-1.963 2.536-3.473 4.437-4.53 1.901-1.056 4.089-1.585 6.564-1.585 2.384 0 4.512.514 6.383 1.54a10.623 10.623 0 014.392 4.393c1.056 1.872 1.584 4.031 1.584 6.477zm-6.564-1.812c-.03-1.63-.619-2.928-1.766-3.895-1.147-.996-2.55-1.494-4.21-1.494-1.569 0-2.897.483-3.984 1.45-1.056.935-1.705 2.249-1.946 3.94h11.906zm17.528-18.614V51.59h-6.338V18.074h6.338zm12.6 0V51.59h-6.338V18.074h6.338z" fill="#fff"/><path d="M18.397 51.982h-5.01L5.01 39.298v12.684H0V31.418h5.01l8.377 12.743V31.418h5.01v20.564z" fill="#1B1B1B"/><path fill-rule="evenodd" clip-rule="evenodd" d="M0 14.647L23.435 0l23.436 14.647v37.35H0h23.434v-5.048h18.382V17.49L23.435 5.938 5.053 17.49v8.874H0V14.647z" fill="#fff"/></svg>