<svg width="13" height="14" fill="none" xmlns="http://www.w3.org/2000/svg"><path d="M4.875 5.406a.835.835 0 00-.813-.812h-.406a1.62 1.62 0 00-1.625 1.625v1.218c0 .915.711 1.625 1.625 1.625h.406a.818.818 0 00.813-.812V5.406zm4.469 3.657a1.62 1.62 0 001.625-1.626V6.22c0-.889-.737-1.625-1.625-1.625h-.406a.818.818 0 00-.813.812V8.25c0 .457.355.813.813.813h.406zM6.5.124C2.87.125.102 3.146 0 6.625v.406c0 .229.178.407.406.407h.406a.418.418 0 00.407-.407v-.406c0-2.895 2.361-5.281 5.281-5.281 2.895 0 5.281 2.386 5.281 5.281h-.025l.025 4.215c0 .61-.482 1.066-1.091 1.066H8.125c0-.66-.559-1.219-1.219-1.219h-.812a1.22 1.22 0 00-1.219 1.22c0 .685.533 1.218 1.219 1.218h4.596c1.269 0 2.31-1.016 2.31-2.285V6.625c-.127-3.479-2.895-6.5-6.5-6.5z" fill="#fff"/></svg>