<svg width="18" height="19" fill="none" xmlns="http://www.w3.org/2000/svg"><path d="M17.016 11.852L13.43 10.34a2.053 2.053 0 00-.633-.14c-.422 0-.985.28-1.23.597l-1.16 1.406c-1.548-.844-3.516-2.812-4.36-4.36l1.406-1.16c.317-.245.598-.808.598-1.23 0-.176-.07-.457-.14-.633L6.397 1.234C6.152.707 5.484.25 4.922.25c-.106 0-.281.035-.387.07l-3.305.74C.527 1.234 0 1.938 0 2.64c0 8.648 6.996 15.644 15.61 15.609.703 0 1.406-.527 1.581-1.23l.739-3.305a1.55 1.55 0 00.07-.352c0-.597-.457-1.265-.984-1.511zm-1.477 4.746C7.91 16.563 1.723 10.34 1.688 2.71l3.164-.738 1.476 3.445-2.39 1.969c1.652 3.48 3.445 5.273 6.925 6.926l1.969-2.391 3.445 1.476-.738 3.2z" fill="#fff"/></svg>