<svg width="21" height="16" fill="none" xmlns="http://www.w3.org/2000/svg"><path d="M20.844 5.25L18.375 1A1.011 1.011 0 0017 .656l-2.156 1.219 1.875 3.156c.062.125.031.282-.094.344l-.438.25c-.125.063-.28.031-.343-.094L14 2.344l-1.75 1 .875 1.469c.063.125.031.28-.094.343l-.406.25c-.125.063-.281.032-.344-.093l-.875-1.5-1.719 1 1.844 3.156c.094.125.031.281-.094.343l-.406.25c-.125.063-.281.032-.344-.093L8.813 5.28l-1.72 1 .877 1.47c.062.125.031.281-.094.344l-.438.25c-.125.062-.28 0-.343-.094l-.875-1.5-1.719.969 1.875 3.187c.063.125.031.281-.094.344l-.437.25c-.125.063-.282.031-.344-.094L3.625 8.22 1.469 9.438a.974.974 0 00-.344 1.343l2.469 4.25c.281.469.906.625 1.375.344L20.5 6.562a.932.932 0 00.344-1.312z" fill="#1B1B1B"/></svg>