<svg width="16" height="17" fill="none" xmlns="http://www.w3.org/2000/svg"><path d="M14.082 8.601c1.898-2.918 2.355-5.66.95-7.03C13.66.163 10.917.62 8 2.518 5.047.621 2.305.164.934 1.57c-1.407 1.371-.95 4.113.949 7.031-1.899 2.953-2.356 5.696-.95 7.067 2.145 2.144 6.399-.528 7.067-.95.633.422 4.887 3.094 7.031.95 1.406-1.371.95-4.114-.949-7.067zM2.937 7.125c-1.195-2.11-1.406-3.797-.843-4.395.808-.773 2.918 0 4.394.844-1.09.879-2.672 2.46-3.55 3.55zm3.551 6.504c-2.11 1.23-3.797 1.441-4.394.843-.563-.597-.352-2.25.844-4.359.878 1.09 2.46 2.672 3.55 3.516zm5.52-5.028a16.98 16.98 0 01-4.043 4.043c-1.582-1.16-2.813-2.425-4.008-4.043.95-1.265 2.742-3.093 4.008-4.043 1.3.95 3.094 2.778 4.043 4.043zm-2.883 0c0-.597-.527-1.125-1.125-1.125h-.035c-.598 0-1.125.528-1.125 1.125 0 .633.527 1.125 1.125 1.125.633 0 1.16-.492 1.16-1.125zm3.902 1.512c1.196 2.11 1.407 3.762.844 4.36-.598.597-2.285.386-4.394-.844 1.09-.844 2.671-2.426 3.55-3.516zm-3.55-6.539c1.476-.844 3.585-1.617 4.394-.844.563.598.352 2.285-.844 4.395-.879-1.09-2.46-2.672-3.55-3.551z" fill="#5200FF"/></svg>