<svg width="20" height="21" fill="none" xmlns="http://www.w3.org/2000/svg"><path d="M8.438.5a.925.925 0 00-.938.938V8H4.062c-.703 0-1.054.86-.546 1.367l5.937 5.938c.274.273.781.273 1.055 0l5.937-5.938C16.953 8.86 16.602 8 15.898 8H12.5V1.437A.95.95 0 0011.562.5H8.438zM20 15.188a.95.95 0 00-.938-.938H13.32l-1.914 1.914a1.96 1.96 0 01-2.851 0L6.64 14.25H.937a.925.925 0 00-.937.938v4.374c0 .547.39.938.938.938h18.125c.507 0 .937-.39.937-.938v-4.375zm-4.844 3.437c0 .43-.351.781-.781.781a.783.783 0 01-.781-.781c0-.43.351-.781.781-.781.43 0 .781.351.781.781zm2.5 0c0 .43-.351.781-.781.781a.783.783 0 01-.781-.781c0-.43.351-.781.781-.781.43 0 .781.351.781.781z" fill="#1EA554"/></svg>