<svg width="16" height="13" fill="none" xmlns="http://www.w3.org/2000/svg"><path d="M7.781 3.677L2.75 7.834v4.457c0 .246.191.437.438.437H6.25c.219 0 .41-.191.41-.437V9.666a.47.47 0 01.438-.438h1.75a.45.45 0 01.437.438v2.625a.45.45 0 00.438.437h3.09a.45.45 0 00.437-.437V7.806L8.191 3.677A.295.295 0 008 3.595a.31.31 0 00-.219.082zm7.957 2.817l-2.27-1.887V.834a.333.333 0 00-.327-.328h-1.532a.316.316 0 00-.328.328v1.968L8.821.78C8.628.615 8.245.506 7.972.506c-.246 0-.63.109-.82.273L.233 6.494a.326.326 0 00-.136.246c0 .082.054.164.082.219l.71.847a.41.41 0 00.247.11.364.364 0 00.218-.082L7.78 2.556A.31.31 0 018 2.474c.055 0 .137.028.191.082l6.426 5.278a.363.363 0 00.219.082.407.407 0 00.246-.11l.711-.847c.027-.055.082-.137.082-.219a.326.326 0 00-.137-.246z" fill="#76A2C5"/></svg>