<svg width="18" height="19" fill="none" xmlns="http://www.w3.org/2000/svg"><path d="M5.625 11.825V4.407c0-.28-.281-.562-.563-.562a.578.578 0 00-.562.562v7.418c-.633.247-1.125.95-1.125 1.618 0 .914.738 1.687 1.688 1.687a1.71 1.71 0 001.687-1.687c0-.668-.527-1.371-1.125-1.618zM9 4.407C9 2.263 7.207.47 5.062.47c-2.18 0-3.937 1.793-3.937 3.937v5.872C.422 11.158 0 12.212 0 13.408a5.041 5.041 0 005.063 5.062 5.064 5.064 0 005.062-5.062c0-1.196-.457-2.25-1.125-3.13v-5.87zM5.062 16.782a3.376 3.376 0 01-3.375-3.374c0-.95.387-1.653.739-2.075l.386-.457V4.407c0-1.23.985-2.25 2.25-2.25 1.231 0 2.25 1.02 2.25 2.25v6.47l.352.456c.352.422.774 1.125.774 2.075-.036 1.863-1.547 3.374-3.376 3.374zM17.297 4.267l-2.39-2.531c-.071-.07-.212-.106-.282-.141-.105.035-.246.07-.316.14l-2.391 2.532a.468.468 0 00-.105.281c0 .246.175.422.421.422h1.547v11.813c0 .316.246.562.563.562h.562a.578.578 0 00.563-.563V4.97h1.547a.427.427 0 00.422-.422c-.036-.07-.07-.21-.141-.281z" fill="#FF8731"/></svg>