<svg width="18" height="17" fill="none" xmlns="http://www.w3.org/2000/svg"><path d="M.563 7.608h11.812a3.353 3.353 0 003.27-4.078c-.247-1.301-1.301-2.32-2.567-2.567a3.354 3.354 0 00-4.043 2.672c-.07.316.211.598.527.598h.633c.282 0 .457-.176.528-.422a1.697 1.697 0 012.18-1.16c.492.14.913.562 1.054 1.054.352 1.16-.492 2.215-1.582 2.215H.562A.578.578 0 000 6.483v.562c0 .317.246.563.563.563zm5.062 1.125H.562A.578.578 0 000 9.295v.563c0 .316.246.562.563.562h5.062c1.09 0 1.934 1.09 1.582 2.25-.14.492-.562.914-1.055 1.055a1.697 1.697 0 01-2.18-1.16c-.07-.246-.245-.422-.527-.422h-.632c-.317 0-.598.281-.528.598a3.354 3.354 0 004.043 2.671c1.3-.246 2.32-1.3 2.567-2.566.457-2.18-1.196-4.113-3.27-4.113zm8.262 0H8.543c.21.175.387.351.562.562.282.352.493.738.633 1.125h4.219c1.16 0 2.215.88 2.32 2.04.141 1.335-.914 2.46-2.25 2.46a2.244 2.244 0 01-2.109-1.476c-.035-.106-.14-.211-.246-.211h-1.16a.297.297 0 00-.282.351c.387 1.723 1.97 3.024 3.832 3.024a3.904 3.904 0 003.903-4.043c-.035-2.145-1.934-3.832-4.078-3.832z" fill="#309BFC"/></svg>