<svg width="16" height="17" viewBox="0 0 16 17" fill="none" xmlns="http://www.w3.org/2000/svg">
<path d="M14.082 8.60132C15.9805 5.68335 16.4375 2.94116 15.0312 1.57007C13.6602 0.163818 10.918 0.62085 8 2.51929C5.04688 0.62085 2.30469 0.163818 0.933594 1.57007C-0.472656 2.94116 -0.015625 5.68335 1.88281 8.60132C-0.015625 11.5544 -0.472656 14.2966 0.933594 15.6677C3.07812 17.8123 7.33203 15.1404 8 14.7185C8.63281 15.1404 12.8867 17.8123 15.0312 15.6677C16.4375 14.2966 15.9805 11.5544 14.082 8.60132ZM2.9375 7.12476C1.74219 5.01538 1.53125 3.32788 2.09375 2.73022C2.90234 1.95679 5.01172 2.73022 6.48828 3.57397C5.39844 4.45288 3.81641 6.03491 2.9375 7.12476ZM6.48828 13.6287C4.37891 14.8591 2.69141 15.0701 2.09375 14.4724C1.53125 13.8748 1.74219 12.2224 2.9375 10.113C3.81641 11.2029 5.39844 12.7849 6.48828 13.6287ZM12.0078 8.60132C10.8477 10.2185 9.58203 11.4841 7.96484 12.6443C6.38281 11.4841 5.15234 10.2185 3.95703 8.60132C4.90625 7.33569 6.69922 5.50757 7.96484 4.55835C9.26562 5.50757 11.0586 7.33569 12.0078 8.60132ZM9.125 8.60132C9.125 8.00366 8.59766 7.47632 8 7.47632H7.96484C7.36719 7.47632 6.83984 8.00366 6.83984 8.60132C6.83984 9.23413 7.36719 9.72632 7.96484 9.72632C8.59766 9.72632 9.125 9.23413 9.125 8.60132ZM13.0273 10.113C14.2227 12.2224 14.4336 13.8748 13.8711 14.4724C13.2734 15.0701 11.5859 14.8591 9.47656 13.6287C10.5664 12.7849 12.1484 11.2029 13.0273 10.113ZM9.47656 3.57397C10.9531 2.73022 13.0625 1.95679 13.8711 2.73022C14.4336 3.32788 14.2227 5.01538 13.0273 7.12476C12.1484 6.03491 10.5664 4.45288 9.47656 3.57397Z" fill="#5200FF"/>
</svg>
