<svg width="20" height="21" viewBox="0 0 20 21" fill="none" xmlns="http://www.w3.org/2000/svg">
<path d="M8.4375 0.5C7.89062 0.5 7.5 0.929688 7.5 1.4375V8H4.0625C3.35938 8 3.00781 8.85938 3.51562 9.36719L9.45312 15.3047C9.72656 15.5781 10.2344 15.5781 10.5078 15.3047L16.4453 9.36719C16.9531 8.85938 16.6016 8 15.8984 8H12.5V1.4375C12.5 0.929688 12.0703 0.5 11.5625 0.5H8.4375ZM20 15.1875C20 14.6797 19.5703 14.25 19.0625 14.25H13.3203L11.4062 16.1641C10.625 16.9844 9.33594 16.9844 8.55469 16.1641L6.64062 14.25H0.9375C0.390625 14.25 0 14.6797 0 15.1875V19.5625C0 20.1094 0.390625 20.5 0.9375 20.5H19.0625C19.5703 20.5 20 20.1094 20 19.5625V15.1875ZM15.1562 18.625C15.1562 19.0547 14.8047 19.4062 14.375 19.4062C13.9453 19.4062 13.5938 19.0547 13.5938 18.625C13.5938 18.1953 13.9453 17.8438 14.375 17.8438C14.8047 17.8438 15.1562 18.1953 15.1562 18.625ZM17.6562 18.625C17.6562 19.0547 17.3047 19.4062 16.875 19.4062C16.4453 19.4062 16.0938 19.0547 16.0938 18.625C16.0938 18.1953 16.4453 17.8438 16.875 17.8438C17.3047 17.8438 17.6562 18.1953 17.6562 18.625Z" fill="#1EA554"/>
</svg>
