<svg width="16" height="13" viewBox="0 0 16 13" fill="none" xmlns="http://www.w3.org/2000/svg">
<path d="M7.78125 3.67749L2.75 7.83374V12.2908C2.75 12.5369 2.94141 12.7283 3.1875 12.7283H6.25C6.46875 12.7283 6.66016 12.5369 6.66016 12.2908V9.66577C6.66016 9.44702 6.87891 9.22827 7.09766 9.22827H8.84766C9.09375 9.22827 9.28516 9.44702 9.28516 9.66577V12.2908C9.28516 12.5369 9.50391 12.7283 9.72266 12.7283H12.8125C13.0312 12.7283 13.25 12.5369 13.25 12.2908V7.8064L8.19141 3.67749C8.13672 3.6228 8.05469 3.59546 8 3.59546C7.91797 3.59546 7.83594 3.6228 7.78125 3.67749ZM15.7383 6.4939L13.4688 4.60718V0.83374C13.4688 0.642334 13.3047 0.505615 13.1406 0.505615H11.6094C11.418 0.505615 11.2812 0.642334 11.2812 0.83374V2.80249L8.82031 0.779053C8.62891 0.61499 8.24609 0.505615 7.97266 0.505615C7.72656 0.505615 7.34375 0.61499 7.15234 0.779053L0.234375 6.4939C0.152344 6.54858 0.0976562 6.65796 0.0976562 6.73999C0.0976562 6.82202 0.152344 6.90405 0.179688 6.95874L0.890625 7.8064C0.945312 7.86108 1.05469 7.91577 1.13672 7.91577C1.19141 7.91577 1.30078 7.88843 1.35547 7.83374L7.78125 2.5564C7.83594 2.50171 7.91797 2.47437 8 2.47437C8.05469 2.47437 8.13672 2.50171 8.19141 2.5564L14.6172 7.83374C14.6719 7.88843 14.7812 7.91577 14.8359 7.91577C14.918 7.91577 15.0273 7.86108 15.082 7.8064L15.793 6.95874C15.8203 6.90405 15.875 6.82202 15.875 6.73999C15.875 6.65796 15.8203 6.54858 15.7383 6.4939Z" fill="#76A2C5"/>
</svg>
