<svg width="18" height="15" viewBox="0 0 18 15" fill="none" xmlns="http://www.w3.org/2000/svg">
<path d="M17.5859 13.0203L9.71094 0.770264C9.57422 0.52417 9.27344 0.360107 9 0.360107C8.69922 0.360107 8.39844 0.52417 8.26172 0.770264L0.386719 13.0203C0.304688 13.157 0.222656 13.3484 0.222656 13.5125C0.222656 13.6218 0.277344 13.8132 0.332031 13.9226C0.46875 14.1687 0.824219 14.3601 1.09766 14.3601H1.125H16.875C17.1758 14.3601 17.4766 14.196 17.6406 13.9226C17.6953 13.8132 17.75 13.6218 17.75 13.5125C17.75 13.3484 17.668 13.157 17.5859 13.0203ZM9 2.87573L11.3242 6.48511H9L7.25 8.23511L6.18359 7.19604L9 2.87573Z" fill="#1EA554"/>
</svg>
