<svg width="18" height="19" viewBox="0 0 18 19" fill="none" xmlns="http://www.w3.org/2000/svg">
<path d="M5.625 11.8254V4.40747C5.625 4.12622 5.34375 3.84497 5.0625 3.84497C4.74609 3.84497 4.5 4.12622 4.5 4.40747V11.8254C3.86719 12.0715 3.375 12.7747 3.375 13.4426C3.375 14.3567 4.11328 15.1301 5.0625 15.1301C5.97656 15.1301 6.75 14.3567 6.75 13.4426C6.75 12.7747 6.22266 12.0715 5.625 11.8254ZM9 4.40747C9 2.26294 7.20703 0.469971 5.0625 0.469971C2.88281 0.469971 1.125 2.26294 1.125 4.40747V10.2786C0.421875 11.1575 0 12.2122 0 13.4075C0 16.22 2.25 18.47 5.0625 18.47C7.83984 18.47 10.125 16.22 10.125 13.4075C10.125 12.2122 9.66797 11.1575 9 10.2786V4.40747ZM5.0625 16.7825C3.19922 16.7825 1.6875 15.2708 1.6875 13.4075C1.6875 12.4583 2.07422 11.7551 2.42578 11.3333L2.8125 10.8762V4.40747C2.8125 3.177 3.79688 2.15747 5.0625 2.15747C6.29297 2.15747 7.3125 3.177 7.3125 4.40747V10.8762L7.66406 11.3333C8.01562 11.7551 8.4375 12.4583 8.4375 13.4075C8.40234 15.2708 6.89062 16.7825 5.0625 16.7825ZM17.2969 4.26685L14.9062 1.7356C14.8359 1.66528 14.6953 1.63013 14.625 1.59497C14.5195 1.63013 14.3789 1.66528 14.3086 1.7356L11.918 4.26685C11.8477 4.33716 11.8125 4.47778 11.8125 4.5481C11.8125 4.79419 11.9883 4.96997 12.2344 4.96997H13.7812V16.7825C13.7812 17.0989 14.0273 17.345 14.3438 17.345H14.9062C15.1875 17.345 15.4688 17.0989 15.4688 16.7825V4.96997H17.0156C17.2266 4.96997 17.4375 4.79419 17.4375 4.5481C17.4023 4.47778 17.3672 4.33716 17.2969 4.26685Z" fill="#FF8731"/>
</svg>
