<svg width="18" height="17" viewBox="0 0 18 17" fill="none" xmlns="http://www.w3.org/2000/svg">
<path d="M0.5625 7.60767H12.375C14.4492 7.60767 16.1016 5.70923 15.6445 3.52954C15.3984 2.22876 14.3438 1.20923 13.0781 0.963135C11.1094 0.54126 9.35156 1.84204 9.03516 3.63501C8.96484 3.95142 9.24609 4.23267 9.5625 4.23267H10.1953C10.4766 4.23267 10.6523 4.05688 10.7227 3.81079C10.9688 2.93188 11.8828 2.33423 12.9023 2.65063C13.3945 2.79126 13.8164 3.21313 13.957 3.70532C14.3086 4.86548 13.4648 5.92017 12.375 5.92017H0.5625C0.246094 5.92017 0 6.20142 0 6.48267V7.04517C0 7.36157 0.246094 7.60767 0.5625 7.60767ZM5.625 8.73267H0.5625C0.246094 8.73267 0 9.01392 0 9.29517V9.85767C0 10.1741 0.246094 10.4202 0.5625 10.4202H5.625C6.71484 10.4202 7.55859 11.51 7.20703 12.6702C7.06641 13.1624 6.64453 13.5842 6.15234 13.7249C5.13281 14.0413 4.21875 13.4436 3.97266 12.5647C3.90234 12.3186 3.72656 12.1428 3.44531 12.1428H2.8125C2.49609 12.1428 2.21484 12.4241 2.28516 12.7405C2.60156 14.5334 4.35938 15.8342 6.32812 15.4124C7.62891 15.1663 8.64844 14.1116 8.89453 12.8459C9.35156 10.6663 7.69922 8.73267 5.625 8.73267ZM13.8867 8.73267H8.54297C8.75391 8.90845 8.92969 9.08423 9.10547 9.29517C9.38672 9.64673 9.59766 10.0334 9.73828 10.4202H13.957C15.1172 10.4202 16.1719 11.2991 16.2773 12.4592C16.418 13.7952 15.3633 14.9202 14.0273 14.9202C13.0781 14.9202 12.2344 14.3225 11.918 13.4436C11.8828 13.3381 11.7773 13.2327 11.6719 13.2327H10.5117C10.3359 13.2327 10.1953 13.4084 10.2305 13.5842C10.6172 15.3069 12.1992 16.6077 14.0625 16.6077C16.2773 16.6077 18.0352 14.7795 17.9648 12.5647C17.9297 10.4202 16.0312 8.73267 13.8867 8.73267Z" fill="#309BFC"/>
</svg>
